<?xml version="1.0" encoding="iso-8859-1"?>
<!-- Generator: Adobe Illustrator 19.0.0, SVG Export Plug-In . SVG Version: 6.00 Build 0)  -->
<svg version="1.1" id="Layer_1" xmlns="http://www.w3.org/2000/svg" xmlns:xlink="http://www.w3.org/1999/xlink" x="0px" y="0px"
	 viewBox="0 0 511.996 511.996" style="enable-background:new 0 0 511.996 511.996;" xml:space="preserve">
<polygon style="fill:#E6E9ED;" points="383.997,96.53 355.997,48.53 291.998,11.062 238.498,11.062 164.999,39.53 132.999,94.53 
	95.999,94.53 95.999,371.527 415.996,371.527 415.996,95.53 "/>
<rect x="73.998" y="377.528" style="fill:#F5F7FA;" width="362" height="39"/>
<path style="fill:#A0D468;" d="M287.998,222.529c0,0-3-51-4-53s-9.5-14-9.5-14l-10,6.5l-16-16.499l-16.5-4l-12,39.999l-26.999,4
	l-7,81.5l-20-18l-10,6.969l64.999,124.029l5.5,42.5l29.5-5l25.5,5l8.5-57l31-29.999V227.029L287.998,222.529z"/>
<polygon style="fill:#ED5564;" points="298.498,422.527 212.749,425.527 213.999,503.777 303.748,505.277 "/>
<path d="M95.999,32.39c5.891,0,10.664-4.765,10.664-10.671c0-5.891-4.773-10.656-10.664-10.656c-5.89,0-10.663,4.766-10.663,10.656
	C85.336,27.625,90.109,32.39,95.999,32.39z"/>
<path d="M437.34,361.902h-10.688V95.999V53.343c0-5.906-4.766-10.688-10.656-10.688s-10.656,4.781-10.656,10.688v32h-14.39
	c-11.406-24.062-28.984-44.562-51.14-59.624C315.029,8.891,286.06,0,255.998,0c-30.055,0-59.03,8.891-83.804,25.719
	c-22.172,15.062-39.742,35.562-51.148,59.624h-14.383v-32c0-5.906-4.773-10.688-10.664-10.688c-5.89,0-10.663,4.781-10.663,10.688
	v42.656v265.903H74.664c-5.891,0-10.664,4.781-10.664,10.656v43.438c0,5.891,4.773,10.656,10.664,10.656h21.335h106.742v64h-64.078
	c-5.891,0-10.664,4.781-10.664,10.688c0,5.875,4.773,10.656,10.664,10.656h74.742h85.343h74.593c5.875,0,10.656-4.781,10.656-10.656
	c0-5.906-4.781-10.688-10.656-10.688h-63.937v-64h106.592h21.344c5.875,0,10.656-4.766,10.656-10.656v-43.438
	C447.996,366.684,443.215,361.902,437.34,361.902z M106.663,106.655h21.305c4.305,0,8.188-2.578,9.844-6.547
	c9.609-23.047,25.641-42.672,46.367-56.734c21.227-14.421,46.054-22.03,71.819-22.03s50.594,7.609,71.812,22.03
	c20.733,14.062,36.765,33.688,46.374,56.734c1.656,3.969,5.531,6.547,9.844,6.547h21.312v255.247h-91.467
	c10.719-13.156,16.859-29.796,16.859-47.218v-90.686c0-5.891-4.766-10.656-10.672-10.656h-0.062v-10.688
	c0-5.875-4.781-10.656-10.656-10.656c-5.5,0-10,4.141-10.594,9.469v-30.781c0-14.703-11.969-26.671-26.688-26.671
	c-2.469,0-4.867,0.344-7.148,0.984c-3.883-9.938-13.555-16.969-24.844-16.969c-14.703,0-26.663,11.953-26.663,26.656v15.968h-21.328
	c-5.891,0-10.664,4.781-10.664,10.688v58.203c-3.078-1.203-6.383-1.875-9.766-1.875c-4.797,0-9.516,1.297-13.648,3.766
	c-12.625,7.547-16.766,23.938-9.227,36.562l32.797,54.968c0.008,0,0.008,0,0.008,0l4.461,7.469
	c2.875,7.78,7.016,15.03,12.258,21.468h-91.633L106.663,106.655L106.663,106.655z M185.233,276.654l7.023,11.78h0.008l0.148,0.25
	h0.008c2.016,3.188,5.469,4.953,9.008,4.953c1.859,0,3.742-0.484,5.461-1.516c4.969-2.969,6.641-9.344,3.828-14.374h0.008
	l-7.984-13.375v-72.374h10.664v59.219c0,5.906,4.78,10.672,10.671,10.672s10.664-4.766,10.664-10.672v-69.875v-10.656v-15.999
	c0-2.938,2.391-5.344,5.328-5.344c2.945,0,5.336,2.406,5.336,5.344v15.999v80.531c0,5.906,4.773,10.672,10.664,10.672
	c5.898,0,10.672-4.766,10.672-10.672v-80.531c0-2.938,2.391-5.344,5.32-5.344c2.953,0,5.344,2.406,5.344,5.344v35.281
	c-0.047,0.406-0.062,0.812-0.062,1.219v44.031c0,5.906,4.766,10.672,10.656,10.672s10.656-4.766,10.656-10.672v-16.562h10.75v43.859
	c-3.5,0.641-7.625,1.608-12,3.108c-3.234-4.343-9.281-5.608-14.016-2.78c-4.344,2.593-6.172,7.78-4.688,12.405
	c-3.203,2.375-6.078,5-8.641,7.875c-4.188-1.406-8.992-0.125-11.844,3.578c-3.391,4.391-2.812,10.609,1.172,14.312
	c-1.352,3.688-2.383,7.578-3.055,11.703c-0.961,5.812,2.977,11.281,8.789,12.25c0.586,0.094,1.164,0.141,1.742,0.141
	c5.133,0,9.664-3.703,10.508-8.922c0.125-0.656,0.25-1.281,0.375-1.922c0.938,0.266,1.906,0.391,2.875,0.391
	c3.188,0,6.344-1.406,8.453-4.141c3.516-4.578,2.766-11.078-1.641-14.734c0.688-0.688,1.422-1.344,2.188-1.984
	c2.062,2.422,5.062,3.766,8.125,3.766c1.875,0,3.75-0.5,5.469-1.516c4.031-2.422,5.891-7.078,4.938-11.422
	c0.438-0.109,0.844-0.219,1.25-0.312v14.375c0,19.031-10.281,36.78-26.812,46.28c-3.312,1.906-5.359,5.422-5.359,9.25v44.656
	l-16.289-8.375c-3.055-1.562-6.664-1.562-9.719,0l-16.484,8.406l-0.172-0.078v-44.812c0-3.797-2.016-7.312-5.297-9.219
	c-11.414-6.656-19.812-17.266-23.843-29.499l-5.539-9.266l0,0l-5.461-9.156h-0.008l-3.68-6.172l0,0l-23.648-39.64
	c-1.508-2.516-0.68-5.797,1.836-7.312c0.844-0.5,1.758-0.75,2.719-0.75c1.906,0,3.625,0.969,4.602,2.609L185.233,276.654z
	 M85.336,383.246h127.897v22.094H85.336V383.246z M224.076,490.652v-57.234l5.812,2.969c3.047,1.547,6.656,1.547,9.703,0
	l16.469-8.406l16.375,8.391c3.047,1.562,6.656,1.562,9.703,0.031l5.938-3.031v57.281h-64V490.652z M426.652,405.34H298.56v-22.094
	h128.092V405.34z"/>
<path d="M415.996,32.39c5.891,0,10.656-4.765,10.656-10.671c0-5.891-4.766-10.656-10.656-10.656s-10.656,4.766-10.656,10.656
	C405.34,27.625,410.105,32.39,415.996,32.39z"/>
<g>
</g>
<g>
</g>
<g>
</g>
<g>
</g>
<g>
</g>
<g>
</g>
<g>
</g>
<g>
</g>
<g>
</g>
<g>
</g>
<g>
</g>
<g>
</g>
<g>
</g>
<g>
</g>
<g>
</g>
</svg>
