<svg height="512" viewBox="0 0 64 64" width="512" xmlns="http://www.w3.org/2000/svg"><g id="flat"><path d="m47 41v-8h-10v6h6v3a3 3 0 0 0 3 3h11v6a2 2 0 0 0 2 2 2 2 0 0 0 2-2v-6a4 4 0 0 0 -4-4z" fill="#c8d952"/><path d="m47 33v15h-4a2 2 0 0 0 -2 2 2 2 0 0 0 2 2h4a4 4 0 0 0 4-4v-15z" fill="#8ec13f"/><path d="m53 27a2.122 2.122 0 0 0 -3 0l-2 2h-8v4h8l2 2a2.122 2.122 0 0 0 3 0 2.122 2.122 0 0 0 0-3l-1-1 1-1a2.122 2.122 0 0 0 0-3z" fill="#f4f4e6"/><path d="m21 22v17h-18v-18a9 9 0 0 1 5.819-8.422z" fill="#8ec13f"/><path d="m6 24h2v2h-2z" fill="#143441"/><path d="m13 31v-2a2 2 0 0 0 0-4v-2a4 4 0 0 1 0 8z" fill="#143441"/><path d="m10.87 36a4.078 4.078 0 0 1 -1.04 1.83 4.025 4.025 0 0 1 -2.83 1.17h-4v-8h4a3.992 3.992 0 0 1 3.87 3z" fill="#f4f4e6"/><path d="m11 35a3.657 3.657 0 0 0 -.13-1h-3.87v-3h-2v3h-2v2h2v3h2v-3h3.87a3.657 3.657 0 0 0 .13-1z" fill="#e2e1cf"/><path d="m39 34 4 3v2h-22v-14h18l4 6z" fill="#143441"/><path d="m37.43 39h-2.61a5.422 5.422 0 0 1 -.71-1.8 5.994 5.994 0 0 1 1.21-4.83l1.55 1.26a3.972 3.972 0 0 0 -.8 3.17 3.872 3.872 0 0 0 1.36 2.2z" fill="#e2e1cf"/><path d="m33.34 39h-2.62a5.638 5.638 0 0 1 -.7-1.8 6.041 6.041 0 0 1 1.2-4.83l1.56 1.26a3.933 3.933 0 0 0 -.8 3.17 3.872 3.872 0 0 0 1.36 2.2z" fill="#e2e1cf"/><path d="m21 29a8.748 8.748 0 0 0 6 0c1.2-.493 1.883-1.187 3-1 1.5.251 1.634 1.729 3 2 1.73.343 4.258-1.484 4-3-.164-.963-1.44-1.736-3-2h-13z" fill="#b11e48"/><path d="m12.01 11.989a9.035 9.035 0 0 0 -3.191.589c-.767 2.585-.348 3.8.191 4.411 1.1 1.253 3.068.52 5 2 .147.112-.128-.122 0 0a11.478 11.478 0 0 0 6.99 3.011l.01-1.011a9 9 0 0 0 -9-9z" fill="#b11e48"/><path d="m24 15h14v2h-14z" fill="#7fcac9"/><path d="m26 19h15v2h-15z" fill="#7fcac9"/><path d="m21 36v9h-9a2.813 2.813 0 0 0 -3 3 2.921 2.921 0 0 0 3 3h11a3.7 3.7 0 0 0 4-4v-11a3 3 0 0 0 -3-3 3 3 0 0 0 -3 3z" fill="#c8d952"/></g></svg>