<svg id="Capa_1" enable-background="new 0 0 512 512" height="512" viewBox="0 0 512 512" width="512" xmlns="http://www.w3.org/2000/svg"><g><circle cx="256" cy="256" fill="#6d36ab" r="256"/><path d="m376.523 114.674-37.335-37.335-244.256 211.818 78.289 78.289-9.2 57.617 54.677 54.677h-3.211l32.108 32.108c2.792.09 5.591.152 8.404.152 141.385 0 256-114.615 256-256 0-4.655-.132-9.279-.377-13.873l-128.54-128.54z" fill="#4b1b7a"/><g><g><path d="m256 479.74h-40.513v-64.279h40.513l20.256 32.14z" fill="#00dc80"/><path d="m256 415.461h40.513v64.278h-40.513z" fill="#00a963"/></g><g><g><path d="m119.935 250.551s14.202 41.651-17.552 41.651c-12.1 0-26.267-29.55-26.267-41.651 0-12.1 9.809-21.909 21.909-21.909s21.91 21.909 21.91 21.909z" fill="#00dc80"/></g><g><g><path d="m392.065 250.551s-14.202 41.651 17.552 41.651c12.1 0 26.267-29.55 26.267-41.651 0-12.1-9.809-21.909-21.909-21.909-12.1-.001-21.91 21.909-21.91 21.909z" fill="#00a963"/></g></g></g><path d="m279.841 126.113-24.653-67.113c-13.891 0-26.239 6.577-34.123 16.778-6.611-5.198-14.941-8.307-24.003-8.307-20.096 0-36.629 15.249-38.663 34.807-1.162-.105-2.337-.167-3.526-.167-21.471 0-38.876 17.405-38.876 38.876s17.405 38.876 38.876 38.876h100.316z" fill="#ff5b5b"/><path d="m394.38 140.987c0-21.471-17.405-38.876-38.876-38.876-1.189 0-2.364.062-3.526.167-2.035-19.558-18.567-34.807-38.663-34.807-9.062 0-17.393 3.109-24.003 8.307-7.885-10.202-20.233-16.778-34.124-16.778v120.864h105.171l-.277-.277c19.312-2.268 34.298-18.679 34.298-38.6z" fill="#ff3939"/><g><g><path d="m256 425.2h-92.115v-127.347h92.115l46.058 63.673z" fill="#afea94"/><path d="m256 297.853h92.115v127.347h-92.115z" fill="#00dc80"/></g></g><path d="m102.573 160.526c-5.589 16.404-8.624 33.989-8.624 52.285 0 89.498 72.552 162.05 162.05 162.05l81.025-162.05-26.142-52.285z" fill="#afea94"/><path d="m256 160.526v214.335c89.498 0 162.05-72.552 162.05-162.05 0-18.295-3.035-35.881-8.624-52.285z" fill="#00dc80"/><g><g><path d="m187.6 265.744c-25.252 0-45.032-11.947-45.032-27.197 0-15.251 19.78-27.198 45.032-27.198s45.032 11.947 45.032 27.198c0 15.25-19.78 27.197-45.032 27.197z" fill="#00dc80"/><ellipse cx="187.6" cy="238.546" fill="#fd5" rx="39.71" ry="21.875"/><g fill="#6d36ab"><path d="m176.449 217.551c-2.586 2.745-4.182 6.433-4.182 10.502 0 8.468 6.865 15.333 15.333 15.333s15.333-6.865 15.333-15.333c0-4.069-1.596-7.757-4.182-10.502-3.539-.569-7.278-.881-11.15-.881s-7.613.312-11.152.881z"/><path d="m179.183 270.96c-21.17 0-39.978-10.073-51.923-25.678 8.067 20.809 28.265 35.57 51.923 35.57s43.856-14.761 51.923-35.57c-11.944 15.605-30.753 25.678-51.923 25.678z"/></g></g><g><path d="m324.4 265.744c25.252 0 45.032-11.947 45.032-27.197 0-15.251-19.78-27.198-45.032-27.198s-45.032 11.947-45.032 27.198c0 15.25 19.78 27.197 45.032 27.197z" fill="#00a963"/><ellipse cx="324.4" cy="238.546" fill="#fc0" rx="39.71" ry="21.875"/><g fill="#4b1b7a"><path d="m335.551 217.551c2.586 2.745 4.182 6.433 4.182 10.502 0 8.468-6.865 15.333-15.333 15.333s-15.333-6.865-15.333-15.333c0-4.069 1.596-7.757 4.182-10.502 3.539-.569 7.278-.881 11.151-.881s7.612.312 11.151.881z"/><path d="m332.817 270.96c21.17 0 39.978-10.073 51.923-25.678-8.067 20.809-28.265 35.57-51.923 35.57s-43.856-14.761-51.923-35.57c11.944 15.605 30.753 25.678 51.923 25.678z"/></g></g></g><g><g><path d="m233.719 280.852h15.967v40.625h-15.967z" fill="#6d36ab"/></g><g><path d="m262.314 280.852h15.967v40.625h-15.967z" fill="#4b1b7a"/></g></g><g><path d="m256 398.097h-81.025v-33.166h81.025l40.513 16.583z" fill="#6d36ab"/><path d="m256 364.931h81.025v33.166h-81.025z" fill="#4b1b7a"/></g><path d="m187.6 354.132h17.541v30.909h-17.541z" fill="#afea94"/><path d="m300.297 382.642h17.541v20.45h-17.541z" fill="#00dc80"/><path d="m266.93 352.835h22.702v33.502h-22.702z" fill="#00dc80"/><path d="m256 398.097-13.771 12.703-13.202-32.504 16.252-6.601z" fill="#afea94"/></g></g></svg>